<svg width="100" height="100" viewBox="0 0 100 100" xmlns="http://www.w3.org/2000/svg">
  <rect width="100" height="100" rx="22" fill="#0f1a14"/>
  <g fill="#4ade80">
    <path d="M50 10C30 10 15 30 15 50C15 70 30 90 50 90C55 90 60 85 58 80C56 75 60 72 65 72C70 72 75 68 75 60C75 35 65 10 50 10Z" opacity="0.25"/>
    <path d="M25 45C25 45 35 25 55 20C55 20 45 35 50 50C55 65 40 75 30 65C20 55 25 45 25 45Z" opacity="0.55"/>
    <circle cx="38" cy="42" r="3"/>
    <path d="M20 48L10 45L22 50Z" opacity="0.7"/>
  </g>
</svg>
